<svg width="421" height="421" viewBox="0 0 421 421" fill="none" xmlns="http://www.w3.org/2000/svg">
<rect width="421" height="421" fill="black"/>
<path d="M154 349.753H115.952V340.551L143.295 329.74V329.582L115.952 318.771V309.569H154V316.662H128.266V320.353L117.007 312.39L154 327.156V332.166L117.007 346.931L128.266 338.968V342.66H154V349.753ZM154.58 286.607C154.58 289.473 153.991 291.951 152.813 294.043C151.636 296.135 149.948 297.752 147.751 298.895C145.554 300.037 142.926 300.608 139.867 300.608H139.814C136.773 300.608 134.163 300.028 131.983 298.868C129.786 297.708 128.099 296.082 126.921 293.99C125.743 291.898 125.154 289.446 125.154 286.634C125.154 283.804 125.743 281.343 126.921 279.251C128.081 277.142 129.76 275.507 131.957 274.347C134.137 273.187 136.756 272.606 139.814 272.606H139.867C142.943 272.606 145.58 273.187 147.777 274.347C149.975 275.489 151.662 277.106 152.84 279.198C154 281.29 154.58 283.76 154.58 286.607ZM148.542 286.581C148.542 285.333 148.208 284.252 147.54 283.338C146.854 282.406 145.87 281.694 144.587 281.202C143.286 280.692 141.713 280.438 139.867 280.438H139.814C137.986 280.438 136.431 280.692 135.147 281.202C133.864 281.712 132.889 282.433 132.221 283.364C131.535 284.296 131.192 285.386 131.192 286.634C131.192 287.864 131.535 288.945 132.221 289.877C132.889 290.791 133.864 291.503 135.147 292.013C136.431 292.522 137.986 292.777 139.814 292.777H139.867C141.713 292.777 143.286 292.531 144.587 292.039C145.87 291.529 146.854 290.809 147.54 289.877C148.208 288.945 148.542 287.847 148.542 286.581ZM154 264.305H125.734V256.606H130.375V256.448C128.758 255.709 127.483 254.619 126.552 253.178C125.62 251.737 125.154 249.952 125.154 247.826C125.154 244.714 126.095 242.315 127.976 240.627C129.839 238.922 132.432 238.07 135.754 238.07H154V245.769H137.336C135.49 245.769 134.066 246.208 133.064 247.087C132.045 247.949 131.535 249.241 131.535 250.963C131.535 252.106 131.799 253.099 132.326 253.943C132.836 254.786 133.557 255.446 134.488 255.92C135.42 256.377 136.51 256.606 137.758 256.606H154V264.305ZM154.58 216.005C154.58 218.887 153.991 221.366 152.813 223.44C151.618 225.514 149.922 227.114 147.725 228.239C145.527 229.346 142.926 229.9 139.92 229.9H139.894C136.888 229.9 134.286 229.346 132.089 228.239C129.874 227.114 128.169 225.541 126.974 223.519C125.761 221.48 125.154 219.081 125.154 216.321C125.154 213.561 125.743 211.179 126.921 209.175C128.081 207.154 129.725 205.598 131.852 204.508C133.979 203.401 136.466 202.847 139.313 202.847H141.687V226.13H136.835V206.486L141.37 210.151H138.417C136.765 210.151 135.385 210.406 134.277 210.916C133.152 211.425 132.309 212.137 131.746 213.051C131.184 213.948 130.902 214.994 130.902 216.189C130.902 217.384 131.192 218.448 131.772 219.38C132.353 220.294 133.205 221.014 134.33 221.542C135.438 222.051 136.8 222.306 138.417 222.306H141.396C142.961 222.306 144.297 222.051 145.404 221.542C146.512 221.014 147.364 220.267 147.962 219.3C148.542 218.334 148.832 217.182 148.832 215.846C148.832 214.792 148.665 213.878 148.331 213.104C147.997 212.331 147.575 211.698 147.065 211.206C146.556 210.714 146.037 210.38 145.51 210.204L145.352 210.151V203.085L145.642 203.164C146.679 203.375 147.725 203.788 148.779 204.403C149.834 205.018 150.801 205.853 151.68 206.908C152.559 207.945 153.262 209.219 153.789 210.731C154.316 212.225 154.58 213.983 154.58 216.005ZM122.57 214.264V219.432L113.553 214.633V207.804L122.57 214.264ZM154.58 183.313C154.58 186.442 153.921 188.763 152.603 190.274C151.284 191.786 149.113 192.542 146.09 192.542H131.535V196.471H125.734V192.542H118.826V184.764H125.734V179.596H131.535V184.764H145.246C146.564 184.764 147.487 184.474 148.015 183.894C148.524 183.296 148.779 182.417 148.779 181.257C148.779 180.905 148.771 180.598 148.753 180.334C148.718 180.07 148.683 179.824 148.647 179.596H154.29C154.36 180.018 154.422 180.545 154.475 181.178C154.545 181.793 154.58 182.505 154.58 183.313ZM154 170.872H125.734V163.173H154V170.872ZM122.096 167.023C122.096 168.183 121.7 169.159 120.909 169.95C120.118 170.741 119.178 171.136 118.088 171.136C116.98 171.136 116.04 170.741 115.267 169.95C114.476 169.159 114.08 168.183 114.08 167.023C114.08 165.863 114.476 164.887 115.267 164.096C116.04 163.305 116.98 162.909 118.088 162.909C119.178 162.909 120.118 163.305 120.909 164.096C121.7 164.887 122.096 165.863 122.096 167.023ZM154.58 142.057C154.58 144.659 154.202 146.874 153.446 148.702C152.69 150.53 151.645 151.963 150.309 153C148.955 154.019 147.391 154.634 145.615 154.845L145.378 154.872V147.357L145.615 147.304C146.723 147.058 147.584 146.505 148.199 145.643C148.814 144.782 149.122 143.587 149.122 142.057C149.122 141.073 149.008 140.238 148.779 139.552C148.533 138.867 148.19 138.339 147.751 137.97C147.312 137.584 146.784 137.39 146.169 137.39H146.143C145.387 137.39 144.78 137.663 144.323 138.208C143.866 138.753 143.479 139.719 143.163 141.108L142.161 145.907C141.774 147.735 141.221 149.264 140.5 150.495C139.762 151.708 138.856 152.622 137.784 153.237C136.694 153.852 135.446 154.16 134.04 154.16H134.014C132.203 154.16 130.639 153.676 129.32 152.71C128.002 151.743 126.982 150.372 126.262 148.596C125.523 146.803 125.154 144.712 125.154 142.321C125.154 139.825 125.559 137.707 126.367 135.966C127.158 134.209 128.23 132.864 129.584 131.932C130.938 130.983 132.44 130.482 134.093 130.429H134.356V137.522L134.146 137.548C133.126 137.672 132.282 138.146 131.614 138.972C130.929 139.781 130.586 140.897 130.586 142.321C130.586 143.2 130.709 143.964 130.955 144.615C131.201 145.265 131.553 145.766 132.01 146.118C132.449 146.469 132.977 146.645 133.592 146.645H133.618C134.093 146.645 134.523 146.531 134.91 146.302C135.279 146.056 135.604 145.652 135.886 145.089C136.167 144.527 136.413 143.771 136.624 142.822L137.652 138.023C138.268 135.052 139.19 132.925 140.421 131.642C141.651 130.341 143.304 129.691 145.378 129.691H145.404C147.25 129.691 148.858 130.218 150.229 131.273C151.601 132.328 152.673 133.787 153.446 135.65C154.202 137.496 154.58 139.631 154.58 142.057ZM154.58 108.707C154.58 111.59 153.991 114.068 152.813 116.143C151.618 118.217 149.922 119.816 147.725 120.941C145.527 122.049 142.926 122.602 139.92 122.602H139.894C136.888 122.602 134.286 122.049 132.089 120.941C129.874 119.816 128.169 118.243 126.974 116.222C125.761 114.183 125.154 111.783 125.154 109.023C125.154 106.264 125.743 103.882 126.921 101.878C128.081 99.8564 129.725 98.3007 131.852 97.2109C133.979 96.1035 136.466 95.5498 139.313 95.5498H141.687V118.832H136.835V99.1884L141.37 102.853H138.417C136.765 102.853 135.385 103.108 134.277 103.618C133.152 104.128 132.309 104.84 131.746 105.754C131.184 106.65 130.902 107.696 130.902 108.892C130.902 110.087 131.192 111.15 131.772 112.082C132.353 112.996 133.205 113.717 134.33 114.244C135.438 114.754 136.8 115.009 138.417 115.009H141.396C142.961 115.009 144.297 114.754 145.404 114.244C146.512 113.717 147.364 112.97 147.962 112.003C148.542 111.036 148.832 109.885 148.832 108.549C148.832 107.494 148.665 106.58 148.331 105.807C147.997 105.033 147.575 104.4 147.065 103.908C146.556 103.416 146.037 103.082 145.51 102.906L145.352 102.853V95.7871L145.642 95.8662C146.679 96.0771 147.725 96.4902 148.779 97.1054C149.834 97.7207 150.801 98.5556 151.68 99.6103C152.559 100.647 153.262 101.922 153.789 103.434C154.316 104.928 154.58 106.686 154.58 108.707ZM154 87.2483H125.734V79.5491H130.665V79.3909C128.925 78.969 127.571 78.2044 126.604 77.097C125.638 75.9895 125.154 74.6096 125.154 72.9573C125.154 72.5354 125.181 72.1311 125.233 71.7444C125.286 71.3577 125.356 71.0237 125.444 70.7425H132.221C132.098 71.0589 132.001 71.4632 131.931 71.9554C131.843 72.4475 131.799 72.9749 131.799 73.5374C131.799 74.803 132.045 75.8841 132.537 76.7805C133.029 77.677 133.75 78.3626 134.699 78.8372C135.648 79.3118 136.809 79.5491 138.18 79.5491H154V87.2483Z" fill="white"/>
</svg>
