<svg width="207" height="207" viewBox="0 0 207 207" fill="none" xmlns="http://www.w3.org/2000/svg">
<rect width="207" height="207" fill="black"/>
<path d="M56.0898 168.084L56.0898 160.297L82 160.297L82 165.342L64.4746 165.342C63.9707 165.342 63.2676 165.336 62.3652 165.324C61.4512 165.312 60.748 165.307 60.2559 165.307L82 170.211L82 175.467L60.2559 180.336C60.748 180.336 61.4512 180.33 62.3652 180.318C63.2676 180.307 63.9707 180.301 64.4746 180.301L82 180.301L82 185.346L56.0898 185.346L56.0898 177.471L76.4629 172.76L56.0898 168.084ZM78.4668 147.438C78.4668 145.973 77.9453 144.848 76.9023 144.063C75.8594 143.278 74.377 142.885 72.4551 142.885C70.5332 142.885 69.0566 143.278 68.0254 144.063C66.9824 144.848 66.4609 145.973 66.4609 147.438C66.4609 148.903 66.9824 150.034 68.0254 150.831C69.0566 151.616 70.5332 152.008 72.4551 152.008C74.377 152.008 75.8594 151.616 76.9023 150.831C77.9453 150.034 78.4668 148.903 78.4668 147.438ZM72.4551 137.63C75.2676 137.63 77.6758 138.438 79.6797 140.055C81.6719 141.672 82.668 144.128 82.668 147.421C82.668 150.714 81.6719 153.169 79.6797 154.786C77.6758 156.403 75.2676 157.212 72.4551 157.212C69.6895 157.212 67.293 156.403 65.2656 154.786C63.2383 153.169 62.2246 150.714 62.2246 147.421C62.2246 144.128 63.2383 141.672 65.2656 140.055C67.293 138.438 69.6895 137.63 72.4551 137.63ZM62.3828 123.769C62.3828 121.788 62.9043 120.171 63.9473 118.917C64.9785 117.652 66.6953 117.019 69.0977 117.019L82 117.019L82 122.152L70.3457 122.152C69.3379 122.152 68.5645 122.286 68.0254 122.556C67.041 123.048 66.5488 123.986 66.5488 125.368C66.5488 127.068 67.2695 128.234 68.7109 128.866C69.4727 129.195 70.4453 129.359 71.6289 129.359L82 129.359L82 134.351L62.875 134.351L62.875 129.517L65.6699 129.517C64.6855 128.872 63.9766 128.263 63.543 127.689C62.7695 126.658 62.3828 125.351 62.3828 123.769ZM66.4609 105.18C66.4609 106.34 66.8242 107.242 67.5508 107.887C68.2773 108.519 69.2617 108.918 70.5039 109.082L70.5039 101.295C69.1797 101.377 68.1777 101.781 67.498 102.508C66.8066 103.223 66.4609 104.113 66.4609 105.18ZM62.3301 105.18C62.3301 103.586 62.6289 102.15 63.2266 100.873C63.8242 99.5956 64.7676 98.5409 66.0566 97.7089C67.1934 96.9589 68.5117 96.4726 70.0117 96.2499C70.8906 96.121 72.1562 96.0683 73.8086 96.0917L73.8086 109.205C75.7305 109.135 77.0781 108.531 77.8516 107.394C78.332 106.703 78.5723 105.871 78.5723 104.898C78.5723 103.867 78.2793 103.029 77.6934 102.385C77.3769 102.033 76.9375 101.723 76.375 101.453L76.375 96.3378C77.5117 96.4667 78.666 97.0585 79.8379 98.1132C81.7012 99.7538 82.6328 102.051 82.6328 105.004C82.6328 107.441 81.8477 109.592 80.2773 111.455C78.707 113.318 76.1523 114.25 72.6133 114.25C69.2969 114.25 66.7539 113.412 64.9844 111.736C63.2148 110.049 62.3301 107.863 62.3301 105.18ZM55 98.8339L60.2559 104.178L60.2559 107.799L55 104.424L55 98.8339ZM66.584 95.0279L63.0156 95.0279L63.0156 92.356L57.6719 92.356L57.6719 87.399L63.0156 87.399L63.0156 84.2877L66.584 84.2877L66.584 87.399L76.709 87.399C77.4941 87.399 77.9863 87.2994 78.1855 87.1002C78.373 86.9009 78.4668 86.2916 78.4668 85.272C78.4668 85.1197 78.4668 84.9615 78.4668 84.7974C78.4551 84.6216 78.4434 84.4517 78.4316 84.2877L82.1758 84.2877L82.2637 86.6607C82.3457 89.0279 81.9355 90.6451 81.0332 91.5123C80.459 92.0748 79.5742 92.356 78.3789 92.356L66.584 92.356L66.584 95.0279ZM60.5547 76.2805L60.5547 81.3605L55.9316 81.3605L55.9316 76.2805L60.5547 76.2805ZM62.8398 81.3605L62.8398 76.2805L82 76.2805L82 81.3605L62.8398 81.3605ZM75.8828 67.869C76.7734 67.7635 77.4062 67.535 77.7812 67.1834C78.4492 66.5623 78.7832 65.4139 78.7832 63.7381C78.7832 62.7538 78.6367 61.9745 78.3437 61.4002C78.0508 60.8143 77.6113 60.5213 77.0254 60.5213C76.4629 60.5213 76.0352 60.7557 75.7422 61.2245C75.4492 61.6932 74.9453 63.4334 74.2305 66.4452C73.6914 68.6131 73.0176 70.1424 72.209 71.033C71.4121 71.9237 70.2637 72.369 68.7637 72.369C66.9941 72.369 65.4766 71.6776 64.2109 70.2948C62.9336 68.9002 62.2949 66.9432 62.2949 64.4237C62.2949 62.033 62.7754 60.0877 63.7363 58.5877C64.6855 57.076 66.332 56.2088 68.6758 55.9862L68.6758 60.9959C68.0312 61.0663 67.5215 61.2479 67.1465 61.5409C66.4668 62.0916 66.1269 63.0291 66.1269 64.3534C66.1269 65.4432 66.2969 66.2225 66.6367 66.6913C66.9766 67.1483 67.375 67.3768 67.832 67.3768C68.4062 67.3768 68.8223 67.1307 69.0801 66.6385C69.3496 66.1463 69.8125 64.4061 70.4687 61.4178C70.9375 59.4256 71.6465 57.9315 72.5957 56.9354C73.5566 55.951 74.7578 55.4588 76.1992 55.4588C78.0977 55.4588 79.6504 56.1678 80.8574 57.5858C82.0527 58.992 82.6504 61.1717 82.6504 64.1248C82.6504 67.1366 82.0176 69.3631 80.7519 70.8045C79.4746 72.2342 77.8516 72.9491 75.8828 72.9491L75.8828 67.869ZM66.4609 44.5337C66.4609 45.6938 66.8242 46.5962 67.5508 47.2407C68.2773 47.8735 69.2617 48.272 70.5039 48.436L70.5039 40.6489C69.1797 40.7309 68.1777 41.1352 67.498 41.8618C66.8066 42.5766 66.4609 43.4673 66.4609 44.5337ZM62.3301 44.5337C62.3301 42.9399 62.6289 41.5044 63.2266 40.227C63.8242 38.9497 64.7676 37.895 66.0566 37.063C67.1934 36.313 68.5117 35.8266 70.0117 35.604C70.8906 35.4751 72.1562 35.4223 73.8086 35.4458L73.8086 48.5591C75.7305 48.4888 77.0781 47.8852 77.8516 46.7485C78.332 46.0571 78.5723 45.2251 78.5723 44.2524C78.5723 43.2212 78.2793 42.3833 77.6934 41.7388C77.3769 41.3872 76.9375 41.0766 76.375 40.8071L76.375 35.6919C77.5117 35.8208 78.666 36.4126 79.8379 37.4673C81.7012 39.1079 82.6328 41.4048 82.6328 44.3579C82.6328 46.7954 81.8477 48.9458 80.2773 50.8091C78.707 52.6723 76.1523 53.604 72.6133 53.604C69.2969 53.604 66.7539 52.7661 64.9844 51.0903C63.2148 49.4028 62.3301 47.2173 62.3301 44.5337ZM62.3828 22.007C62.3828 21.9132 62.3887 21.837 62.4004 21.7784C62.4004 21.7081 62.4062 21.5616 62.418 21.339L67.5508 21.339C67.5156 21.6554 67.4922 21.9366 67.4805 22.1827C67.4687 22.4288 67.4629 22.6281 67.4629 22.7804C67.4629 24.796 68.1191 26.1495 69.4316 26.8409C70.1699 27.2277 71.3066 27.421 72.8418 27.421L82 27.421L82 32.4659L62.8398 32.4659L62.8398 27.6847L66.1797 27.6847C64.9023 26.9113 64.0293 26.2374 63.5605 25.6632C62.7754 24.7257 62.3828 23.507 62.3828 22.007Z" fill="white"/>
</svg>
