<svg width="268" height="272" viewBox="0 0 268 272" fill="none" xmlns="http://www.w3.org/2000/svg">
<rect width="268" height="272" rx="25" fill="black"/>
<path d="M71 248.522V255.809H33.5742V244.434L63.002 237.629L33.5742 230.875V219.627H71V226.914H45.6855C44.9577 226.914 43.9421 226.906 42.6387 226.889C41.3184 226.872 40.3027 226.863 39.5918 226.863L71 233.947V241.539L39.5918 248.572C40.3027 248.572 41.3184 248.564 42.6387 248.547C43.9421 248.53 44.9577 248.522 45.6855 248.522H71ZM46.8281 190.181C49.7565 187.845 53.2181 186.677 57.2129 186.677C61.2754 186.677 64.7539 187.845 67.6484 190.181C70.526 192.517 71.9648 196.063 71.9648 200.82C71.9648 205.576 70.526 209.123 67.6484 211.459C64.7539 213.794 61.2754 214.962 57.2129 214.962C53.2181 214.962 49.7565 213.794 46.8281 211.459C43.8997 209.123 42.4355 205.576 42.4355 200.82C42.4355 196.063 43.8997 192.517 46.8281 190.181ZM48.5547 200.845C48.5547 202.961 49.3079 204.595 50.8145 205.746C52.304 206.88 54.4368 207.447 57.2129 207.447C59.9889 207.447 62.1302 206.88 63.6367 205.746C65.1432 204.595 65.8965 202.961 65.8965 200.845C65.8965 198.729 65.1432 197.104 63.6367 195.97C62.1302 194.836 59.9889 194.269 57.2129 194.269C54.4368 194.269 52.304 194.836 50.8145 195.97C49.3079 197.104 48.5547 198.729 48.5547 200.845ZM48.6816 168.759C48.6816 171.213 49.7227 172.897 51.8047 173.812C52.9049 174.286 54.3099 174.522 56.0195 174.522H71V181.733H43.375V174.751H47.4121C45.9902 173.82 44.9661 172.94 44.3398 172.11C43.2227 170.621 42.6641 168.733 42.6641 166.448C42.6641 163.588 43.4173 161.252 44.9238 159.44C46.4134 157.612 48.8932 156.698 52.3633 156.698H71V164.112H54.166C52.7103 164.112 51.5931 164.307 50.8145 164.696C49.3926 165.407 48.6816 166.761 48.6816 168.759ZM62.875 126.618C64.5169 126.804 66.1842 127.659 67.877 129.182C70.5684 131.552 71.9141 134.87 71.9141 139.135C71.9141 142.656 70.7799 145.762 68.5117 148.454C66.2435 151.145 62.5534 152.491 57.4414 152.491C52.651 152.491 48.9779 151.28 46.4219 148.86C43.8659 146.422 42.5879 143.265 42.5879 139.389C42.5879 137.087 43.0195 135.014 43.8828 133.168C44.7461 131.323 46.1087 129.8 47.9707 128.598C49.6126 127.515 51.5169 126.812 53.6836 126.491C54.9531 126.305 56.7813 126.228 59.168 126.262V145.204C61.944 145.102 63.8906 144.23 65.0078 142.588C65.7018 141.59 66.0488 140.388 66.0488 138.983C66.0488 137.493 65.6257 136.283 64.7793 135.352C64.3223 134.844 63.6875 134.396 62.875 134.006V126.618ZM54.3945 133.778C52.4818 133.896 51.0345 134.48 50.0527 135.53C49.054 136.562 48.5547 137.849 48.5547 139.389C48.5547 141.065 49.0794 142.368 50.1289 143.299C51.1784 144.213 52.6003 144.789 54.3945 145.026V133.778ZM39.5918 143.172L32 138.297V130.223L39.5918 137.942V143.172ZM65.8457 109.004H71.2539L71.3809 112.432C71.4993 115.851 70.9069 118.187 69.6035 119.439C68.7741 120.252 67.4961 120.658 65.7695 120.658H48.7324V124.518H43.5781V120.658H35.8594V113.498H43.5781V109.004H48.7324V113.498H63.3574C64.4915 113.498 65.2025 113.354 65.4902 113.066C65.7611 112.779 65.8965 111.898 65.8965 110.426C65.8965 110.206 65.8965 109.977 65.8965 109.74C65.8796 109.486 65.8626 109.241 65.8457 109.004ZM43.3242 97.23H71V104.568H43.3242V97.23ZM33.3457 97.23H40.0234V104.568H33.3457V97.23ZM44.5938 71.4404C45.9818 69.2737 48.3685 68.0296 51.7539 67.708V74.9443C50.8229 75.0459 50.0866 75.3082 49.5449 75.7314C48.5632 76.527 48.0723 77.8812 48.0723 79.7939C48.0723 81.3681 48.3177 82.4938 48.8086 83.1709C49.2995 83.831 49.875 84.1611 50.5352 84.1611C51.3646 84.1611 51.9655 83.8056 52.3379 83.0947C52.7272 82.3838 53.3958 79.8701 54.3438 75.5537C55.0208 72.6761 56.0449 70.5179 57.416 69.0791C58.804 67.6572 60.5391 66.9463 62.6211 66.9463C65.3633 66.9463 67.6061 67.9703 69.3496 70.0185C71.0762 72.0498 71.9395 75.1982 71.9395 79.4638C71.9395 83.8141 71.0254 87.0302 69.1973 89.1123C67.3522 91.1774 65.0078 92.2099 62.1641 92.2099V84.872C63.4505 84.7197 64.3646 84.3896 64.9063 83.8818C65.8711 82.9847 66.3535 81.3258 66.3535 78.9052C66.3535 77.4834 66.1419 76.3577 65.7188 75.5283C65.2956 74.6819 64.6608 74.2588 63.8145 74.2588C63.002 74.2588 62.3841 74.5973 61.9609 75.2744C61.5378 75.9515 60.8099 78.4651 59.7773 82.8154C58.9987 85.9469 58.0254 88.1559 56.8574 89.4424C55.7064 90.7288 54.0475 91.372 51.8809 91.372C49.3249 91.372 47.1328 90.3733 45.3047 88.3759C43.4596 86.3616 42.5371 83.5348 42.5371 79.8955C42.5371 76.4424 43.2227 73.624 44.5938 71.4404ZM62.875 38.186C64.5169 38.3722 66.1842 39.227 67.877 40.7505C70.5684 43.1202 71.9141 46.438 71.9141 50.7036C71.9141 54.2244 70.7799 57.3305 68.5117 60.0219C66.2435 62.7133 62.5534 64.0591 57.4414 64.0591C52.651 64.0591 48.9779 62.8488 46.4219 60.4282C43.8659 57.9907 42.5879 54.8338 42.5879 50.9575C42.5879 48.6554 43.0195 46.5818 43.8828 44.7368C44.7461 42.8917 46.1087 41.3683 47.9707 40.1665C49.6126 39.0831 51.5169 38.3807 53.6836 38.0591C54.9531 37.8729 56.7813 37.7967 59.168 37.8305V56.7719C61.944 56.6704 63.8906 55.7986 65.0078 54.1567C65.7018 53.158 66.0488 51.9562 66.0488 50.5512C66.0488 49.0617 65.6257 47.8514 64.7793 46.9204C64.3223 46.4126 63.6875 45.964 62.875 45.5747V38.186ZM54.3945 45.3462C52.4818 45.4647 51.0345 46.0486 50.0527 47.0981C49.054 48.1307 48.5547 49.4171 48.5547 50.9575C48.5547 52.6333 49.0794 53.9367 50.1289 54.8676C51.1784 55.7817 52.6003 56.3572 54.3945 56.5942V45.3462ZM50.002 19.3281C50.002 22.2395 50.9499 24.1946 52.8457 25.1933C53.9121 25.7519 55.554 26.0312 57.7715 26.0312H71V33.3183H43.3242V26.4121H48.1484C46.3034 25.2949 45.0423 24.3216 44.3652 23.4921C43.2311 22.138 42.6641 20.3776 42.6641 18.2109C42.6641 18.0755 42.6725 17.9654 42.6895 17.8808C42.6895 17.7793 42.6979 17.5677 42.7148 17.246H50.1289C50.0781 17.7031 50.0443 18.1093 50.0273 18.4648C50.0104 18.8203 50.002 19.108 50.002 19.3281Z" fill="white"/>
</svg>
